<svg width="73" height="73" viewBox="0 0 73 73" fill="none" xmlns="http://www.w3.org/2000/svg">
<rect width="73" height="73" rx="3" fill="#EADA4D"/>
<path d="M27.3896 56.7878L32.6599 51.3879C30.8184 50.9879 29.0643 50.2587 27.4819 49.2354L27.3896 56.7878Z" fill="white"/>
<path d="M44.6111 15.2129L39.3408 20.6121C41.1824 21.0124 42.9365 21.7418 44.5188 22.7654L44.6111 15.2129Z" fill="white"/>
<path d="M20.6127 39.3403L15.2119 44.6091L22.7644 44.5176C21.7414 42.9354 21.0125 41.1815 20.6127 39.3403Z" fill="white"/>
<path d="M51.3866 32.6604L56.7859 27.3901L49.2334 27.4824C50.2565 29.0649 50.986 30.819 51.3866 32.6604Z" fill="white"/>
<path d="M22.7664 27.4814L15.2139 27.3892L20.6131 32.6594C21.0133 30.8179 21.7428 29.0637 22.7664 27.4814Z" fill="white"/>
<path d="M49.2334 44.5183L56.7859 44.6098L51.3866 39.3403C50.986 41.1817 50.2565 42.9358 49.2334 44.5183Z" fill="white"/>
<path d="M32.6594 20.6124L27.3906 15.2124L27.4814 22.7649C29.0639 21.7418 30.818 21.0126 32.6594 20.6124Z" fill="white"/>
<path d="M39.3408 51.3879L44.6111 56.7871L44.5188 49.2354C42.9363 50.2584 41.1822 50.9876 39.3408 51.3879Z" fill="white"/>
<path d="M23.0636 44.9717L20.0898 51.9099L27.0288 48.9362C25.4821 47.8607 24.1394 46.5182 23.0636 44.9717Z" fill="white"/>
<path d="M48.9362 27.0293L51.9099 20.0903L44.9717 23.0641C46.5182 24.1399 47.8607 25.4826 48.9362 27.0293Z" fill="white"/>
<path d="M20.25 36.0001C20.25 35.0416 20.3498 34.1071 20.514 33.1943L13.5 35.9993L20.5132 38.8043C20.3421 37.8793 20.254 36.9408 20.25 36.0001Z" fill="white"/>
<path d="M58.4999 36.0001L51.4844 33.1943C51.6486 34.1071 51.7484 35.0416 51.7484 36.0001C51.7484 36.9593 51.6486 37.8938 51.4844 38.8058L58.4999 36.0001Z" fill="white"/>
<path d="M27.0288 23.0631L20.0898 20.0894L23.0636 27.0284C24.1389 25.4813 25.4817 24.1385 27.0288 23.0631Z" fill="white"/>
<path d="M44.9717 48.9362L51.9099 51.9099L48.9362 44.9717C47.8609 46.5184 46.5184 47.8609 44.9717 48.9362Z" fill="white"/>
<path d="M38.8058 20.514L36.0008 13.5L33.1943 20.514C34.1196 20.3427 35.0583 20.2543 35.9993 20.25C36.9586 20.25 37.8931 20.3498 38.8058 20.514Z" fill="white"/>
<path d="M33.1943 51.4858L36.0008 58.4998L38.8058 51.4858C37.8801 51.6572 36.9408 51.7456 35.9993 51.7498C35.0416 51.7498 34.1071 51.6501 33.1943 51.4858Z" fill="white"/>
<path d="M35.999 21.75C28.13 21.75 21.749 28.131 21.749 36C21.749 43.8698 28.13 50.25 35.999 50.25C43.8695 50.25 50.2483 43.8698 50.2483 36C50.2483 28.131 43.8695 21.75 35.999 21.75ZM35.999 48.75C28.9685 48.75 23.249 43.0305 23.249 36C23.249 28.9695 28.9685 23.25 35.999 23.25C43.0295 23.25 48.7483 28.9695 48.7483 36C48.7483 43.0305 43.0295 48.75 35.999 48.75Z" fill="white"/>
<path d="M41.9783 39.9321C38.1255 42.6194 33.8528 42.6036 30.024 39.9321C29.5628 39.6111 29.148 40.1676 29.46 40.6821C30.627 42.6044 32.9828 44.3159 36.0015 44.3159C39.0188 44.3159 41.3745 42.6044 42.5423 40.6821C42.8543 40.1684 42.4395 39.6111 41.9783 39.9321Z" fill="white"/>
<path d="M33.7535 35.5018C33.9823 35.7403 34.4375 35.3008 34.3498 35.0563C33.4663 32.6278 32.1365 31.4136 30.806 31.4136C29.4763 31.4136 28.145 32.6278 27.263 35.0563C27.1753 35.3008 27.6305 35.7403 27.8593 35.5018C28.715 34.5981 29.7388 34.2388 30.806 34.2388C31.874 34.2388 32.8993 34.5981 33.7535 35.5018Z" fill="white"/>
<path d="M41.1925 31.4136C39.8642 31.4136 38.5322 32.6278 37.6487 35.0563C37.561 35.3008 38.0177 35.7403 38.245 35.5018C39.1007 34.5981 40.1245 34.2388 41.1925 34.2388C42.262 34.2388 43.2857 34.5981 44.1415 35.5018C44.3702 35.7403 44.824 35.3008 44.7377 35.0563C43.8542 32.6278 42.5237 31.4136 41.1925 31.4136Z" fill="white"/>
</svg>
