<svg width="73" height="73" viewBox="0 0 73 73" fill="none" xmlns="http://www.w3.org/2000/svg">
<path d="M0 3C0 1.34315 1.34315 0 3 0H70C71.6569 0 73 1.34315 73 3V70C73 71.6569 71.6569 73 70 73H3C1.34315 73 0 71.6569 0 70V3Z" fill="#8BE860"/>
<path d="M57.264 34.6597C56.6138 34.1017 50.7945 29.2073 46.7445 29.2073C41.6955 29.2073 39.258 33.6105 38.673 35.9393L38.5845 36.2955C37.8313 36.7252 37.1245 37.2316 36.4755 37.8068C35.7832 38.4243 35.1671 39.1222 34.6403 39.8857C34.5982 39.6855 34.557 39.4853 34.506 39.2917C33.9105 37.116 32.955 35.1915 31.9252 33.321C31.0927 31.8428 30.1733 30.429 29.2103 29.0497L29.2575 28.9545C30.2655 26.9205 31.1558 22.0087 27.3165 17.9835C24.1898 14.7038 16.0425 13.7655 15.1245 13.671L13.5 13.5L13.6598 15.177C13.7513 16.14 14.643 24.6667 17.7645 27.9382C19.5022 29.76 21.6758 30.7238 24.051 30.7238C26.0025 30.7238 27.6112 30.0772 28.3282 29.7337C29.1848 31.1197 29.9749 32.5455 30.696 34.0065C31.5885 35.8582 32.3993 37.7888 32.808 39.717C32.9062 40.1963 32.2305 58.5 32.2305 58.5H35.571C35.571 58.5 35.049 43.3943 35.1413 43.0312C35.5312 41.5215 36.3803 40.1017 37.4993 38.9452C37.9801 38.4537 38.5059 38.0083 39.0697 37.6147C40.047 39.5767 42.456 42.2332 46.7445 42.2332C50.7945 42.2332 56.6138 37.3395 57.264 36.7815L58.5 35.7203L57.264 34.6597Z" fill="#00B712"/>
</svg>
