<svg width="73" height="73" viewBox="0 0 73 73" fill="none" xmlns="http://www.w3.org/2000/svg">
<rect width="73" height="73" rx="3" fill="#4D68EA"/>
<path d="M29.7175 46.0304C29.2735 47.2567 29.65 48.5204 30.5613 48.8549C31.471 49.1872 32.5713 48.4634 33.0153 47.2364C33.5373 45.7927 33.5733 43.8164 33.2185 41.5244C31.507 43.0259 30.241 44.5859 29.7175 46.0304Z" fill="white"/>
<path d="M39.8961 47.2359C40.4196 45.7922 40.4541 43.8159 40.0993 41.5239C38.3878 43.0262 37.1211 44.5862 36.5991 46.0307C36.1536 47.2569 36.5316 48.5207 37.4428 48.8552C38.3541 49.1874 39.4528 48.4629 39.8961 47.2359Z" fill="white"/>
<path d="M46.9814 41.5239C45.2699 43.0262 44.0032 44.5862 43.4797 46.0307C43.0364 47.2569 43.4137 48.5207 44.3234 48.8552C45.2347 49.1874 46.3334 48.4637 46.7774 47.2367C47.3002 45.7929 47.3369 43.8167 46.9814 41.5239Z" fill="white"/>
<path d="M22.8371 46.0304C22.3938 47.2567 22.7711 48.5204 23.6808 48.8549C24.5921 49.1872 25.6908 48.4634 26.1348 47.2364C26.6576 45.7927 26.6928 43.8164 26.3381 41.5244C24.6273 43.0259 23.3613 44.5859 22.8371 46.0304Z" fill="white"/>
<path d="M24.3168 55.5954C23.8736 56.8216 24.2493 58.0854 25.1606 58.4191C26.0718 58.7529 27.1706 58.0284 27.6146 56.8021C28.1366 55.3576 28.1726 53.3814 27.8178 51.0894C26.1063 52.5909 24.8403 54.1509 24.3168 55.5954Z" fill="white"/>
<path d="M34.4952 56.8011C35.0195 55.3566 35.0532 53.3804 34.6985 51.0884C32.9885 52.5906 31.721 54.1506 31.1982 55.5951C30.7535 56.8214 31.1315 58.0851 32.042 58.4189C32.9525 58.7526 34.0527 58.0274 34.4952 56.8011Z" fill="white"/>
<path d="M41.5783 51.0884C39.8683 52.5906 38.6008 54.1506 38.0796 55.5951C37.6341 56.8214 38.0121 58.0851 38.9226 58.4189C39.8331 58.7526 40.9326 58.0281 41.3758 56.8019C41.8993 55.3574 41.9346 53.3811 41.5783 51.0884Z" fill="white"/>
<path d="M17.436 55.5954C16.992 56.8216 17.37 58.0854 18.2805 58.4191C19.191 58.7529 20.2905 58.0284 20.7338 56.8021C21.2573 55.3576 21.2925 53.3814 20.937 51.0894C19.2263 52.5909 17.958 54.1509 17.436 55.5954Z" fill="white"/>
<path d="M40.8762 15.879C44.7342 15.879 47.8617 19.005 47.8617 22.8608C47.8617 23.0483 47.8475 23.2313 47.834 23.4135C46.2688 23.5323 44.7833 24.1515 43.5972 25.1798C44.4831 24.6698 45.4873 24.4016 46.5095 24.402C47.5335 24.4003 48.5397 24.6694 49.4262 25.182C51.1827 26.1938 52.367 28.0807 52.367 30.2512C52.367 33.03 50.4252 35.3542 47.825 35.9505C47.3941 36.0522 46.953 36.1043 46.5102 36.1057H26.147C25.6391 36.1054 25.1346 36.0231 24.653 35.862C23.7026 35.5485 22.8752 34.9434 22.2884 34.1327C21.7017 33.322 21.3854 32.347 21.3845 31.3463C21.3845 29.9145 22.0197 28.6335 23.0195 27.7635C23.4766 27.3636 24.0065 27.0555 24.5802 26.856C25.0838 26.6781 25.6137 26.5863 26.1477 26.5845C26.8766 26.5846 27.5956 26.7523 28.2494 27.0745C28.9031 27.3968 29.474 27.865 29.918 28.443L29.9607 28.4415C29.4502 27.5021 28.7168 26.7026 27.8249 26.113C26.933 25.5235 25.91 25.1621 24.8457 25.0605C25.6707 22.1917 28.3107 20.088 31.4457 20.088C31.7802 20.088 32.1072 20.1195 32.4275 20.1667C33.065 20.2582 33.6725 20.4323 34.2395 20.6858C35.2976 21.1572 36.2192 21.8887 36.9185 22.8122C37.6178 23.7356 38.0722 24.821 38.2392 25.9672L38.2407 25.9252C38.2407 23.2327 36.8585 20.8627 34.7645 19.4797C35.3687 18.3883 36.2542 17.4787 37.3291 16.8455C38.4039 16.2122 39.6287 15.8785 40.8762 15.879ZM40.8762 13.5C37.6632 13.5 34.682 15.15 32.9667 17.8418C32.9015 17.8313 32.8347 17.8222 32.768 17.811C32.3298 17.7448 31.8874 17.7107 31.4442 17.709C27.3417 17.709 23.6855 20.4615 22.5537 24.405L22.2837 25.3425C21.992 25.53 21.713 25.7407 21.449 25.9725C20.6806 26.6412 20.0645 27.4669 19.6422 28.3939C19.2199 29.3209 19.0013 30.3276 19.001 31.3463C19 32.8486 19.4737 34.3128 20.3546 35.5298C21.2355 36.7467 22.4785 37.6542 23.906 38.1225C24.6275 38.3633 25.3835 38.4847 26.1462 38.4847H46.508C47.123 38.4847 47.7462 38.4128 48.3627 38.2695C50.181 37.8595 51.8049 36.8414 52.9662 35.3835C54.1275 33.9256 54.7566 32.1151 54.7497 30.2512C54.7457 28.733 54.323 27.2453 53.5282 25.9517C52.7333 24.6581 51.5971 23.6088 50.2445 22.9193V22.86C50.2445 17.7 46.0415 13.5 40.8762 13.5Z" fill="white"/>
</svg>
