<?xml version="1.0" encoding="utf-8"?><svg viewBox="0 0 512 512" xmlns="http://www.w3.org/2000/svg" xmlns:xlink="http://www.w3.org/1999/xlink"><style>:root>svg{display:none}:root>svg:target{display:block}</style><svg fill="#444" viewBox="0 0 515.556 515.556" id="arrow-down" xmlns="http://www.w3.org/2000/svg"><path d="M257.778 386.671L0 128.893h128.886l128.892 128.889 128.886-128.897 128.892.008z"/></svg><svg viewBox="0 0 20.03 20.031" id="bg-ellipse" xmlns="http://www.w3.org/2000/svg"><defs><style>.bcls-1{fill:#fff;fill-rule:evenodd}</style></defs><path class="bcls-1" d="M2.15 4.287a2.146 2.146 0 112.14-2.145 2.145 2.145 0 01-2.14 2.145zm0 7.869a2.146 2.146 0 112.14-2.147 2.146 2.146 0 01-2.14 2.147zm0 7.868a2.146 2.146 0 112.14-2.146 2.145 2.145 0 01-2.14 2.146zm7.86-15.737a2.146 2.146 0 112.15-2.145 2.143 2.143 0 01-2.15 2.145zm0 7.869a2.146 2.146 0 112.15-2.147 2.144 2.144 0 01-2.15 2.147zm0 7.868a2.146 2.146 0 112.15-2.146 2.143 2.143 0 01-2.15 2.146zm7.87-15.737a2.146 2.146 0 112.15-2.145 2.143 2.143 0 01-2.15 2.145zm0 7.869a2.146 2.146 0 112.15-2.147 2.144 2.144 0 01-2.15 2.147zm0 7.868a2.146 2.146 0 112.15-2.146 2.143 2.143 0 01-2.15 2.146z"/></svg><svg viewBox="0 0 15.28 15.281" id="bg-find" xmlns="http://www.w3.org/2000/svg"><defs><style>.ccls-1{fill:#243f4d;fill-rule:evenodd}</style></defs><path id="cicon" class="ccls-1" d="M1547.7 72.076a.617.617 0 01.75.485 2.583 2.583 0 00.78 1.489 3.036 3.036 0 001.49.777.636.636 0 01.49.743.649.649 0 01-.72.515 4.21 4.21 0 01-2.14-1.13 4.164 4.164 0 01-1.13-2.136.6.6 0 01.48-.743zm3.28-6.076a6.267 6.267 0 016.28 6.257 6.136 6.136 0 01-.57 2.6l2.34 2.036c1.7 1.746.74 3.266.29 3.717-.42.454-1.99 1.414-3.73-.292l-2.06-2.35A6.261 6.261 0 111550.98 66zm5.55 13.517a1.352 1.352 0 001.88.226 1.313 1.313 0 00-.23-1.874l-2.16-1.88a6.236 6.236 0 01-1.37 1.34zm-5.55-2.312a4.948 4.948 0 10-4.97-4.948 4.963 4.963 0 004.97 4.943z" transform="translate(-1544.72 -66)"/></svg><svg viewBox="0 0 15.28 15.281" id="bg-find_copy" xmlns="http://www.w3.org/2000/svg"><defs><style>.dcls-1{fill:#243f4d;fill-rule:evenodd}</style></defs><path id="dicon" class="dcls-1" d="M1547.7 72.076a.617.617 0 01.75.485 2.583 2.583 0 00.78 1.489 3.036 3.036 0 001.49.777.636.636 0 01.49.743.649.649 0 01-.72.515 4.21 4.21 0 01-2.14-1.13 4.164 4.164 0 01-1.13-2.136.6.6 0 01.48-.743zm3.28-6.076a6.267 6.267 0 016.28 6.257 6.136 6.136 0 01-.57 2.6l2.34 2.036c1.7 1.746.74 3.266.29 3.717-.42.454-1.99 1.414-3.73-.292l-2.06-2.35A6.261 6.261 0 111550.98 66zm5.55 13.517a1.352 1.352 0 001.88.226 1.313 1.313 0 00-.23-1.874l-2.16-1.88a6.236 6.236 0 01-1.37 1.34zm-5.55-2.312a4.948 4.948 0 10-4.97-4.948 4.963 4.963 0 004.97 4.943z" transform="translate(-1544.72 -66)"/></svg><svg version="1.0" viewBox="0 0 33 27" id="blog" xmlns="http://www.w3.org/2000/svg"><path d="M9.6 1C5.9 2.1 1.3 6.5.6 9.6c-.7 2.7.5 5.7 3.7 9.1 1.9 2.1 1.9 2.4.3 4.7-.9 1.4-1.6 2.7-1.6 3 0 .8 6.1-1.2 7.7-2.5.8-.7 3.6-1.3 6.2-1.4C25.3 22.2 32 17 32 10.7 32 3.3 19.8-2 9.6 1zm2 9.1c1 1.7-2.3 4.6-3.7 3.2-.7-.7-.9-1.9-.6-2.7.7-1.8 3.3-2.1 4.3-.5zm7 0c1 1.7-2.3 4.6-3.7 3.2-.7-.7-.9-1.9-.6-2.7.7-1.8 3.3-2.1 4.3-.5zm6.7.3c.8 2-2 4.3-3.5 2.8-1.4-1.4-.3-4.2 1.6-4.2.7 0 1.6.6 1.9 1.4z"/></svg><svg viewBox="0 0 18 20.93" id="cart" xmlns="http://www.w3.org/2000/svg"><defs><style>.fcls-1{fill:#e24545;fill-rule:evenodd}</style></defs><path id="fSHOPPING_BAG" data-name="SHOPPING BAG" class="fcls-1" d="M1254.96 84.925h-15.92a1.009 1.009 0 01-1.04-.982v-.982h18v.982a1.015 1.015 0 01-1.04.982zM1238 69.863a1.008 1.008 0 011.04-.981h2.77a5.2 5.2 0 0110.38 0h2.77a1.014 1.014 0 011.04.981v12.115h-18V69.863zm12.11-.981a3.12 3.12 0 00-6.23 0h6.23z" transform="translate(-1238 -63.969)"/></svg><svg viewBox="0 0 24 24" id="facebook" xmlns="http://www.w3.org/2000/svg"><path d="M15.997 3.985h2.191V.169C17.81.117 16.51 0 14.996 0c-3.159 0-5.323 1.987-5.323 5.639V9H6.187v4.266h3.486V24h4.274V13.267h3.345l.531-4.266h-3.877V6.062c.001-1.233.333-2.077 2.051-2.077z" fill="currentColor" data-original="#000000"/></svg><svg viewBox="0 0 512 512" id="google" xmlns="http://www.w3.org/2000/svg"><path fill="currentColor" data-original="#000000" d="M448 224v-64h-32v64h-64v32h64v64h32v-64h64v-32zM160 224v64h90.528c-13.216 37.248-48.8 64-90.528 64-52.928 0-96-43.072-96-96s43.072-96 96-96c22.944 0 45.024 8.224 62.176 23.168l42.048-48.256C235.424 109.824 198.432 96 160 96 71.776 96 0 167.776 0 256s71.776 160 160 160 160-71.776 160-160v-32H160z"/></svg><svg version="1.0" viewBox="0 0 29 28" id="hand" xmlns="http://www.w3.org/2000/svg"><path d="M16.7 1.7C16.3 2 16 3.1 16 4c0 .9-1.6 3.3-3.5 5.4C9.3 12.9 9 13.8 9 19.2c0 5.5.2 5.9 2.8 6.9 1.5.6 4.7 1.3 7.2 1.6 5.6.7 6.4-.2 8.4-8.7 1.7-7.3 1.1-9-3.6-9-2.7 0-3-.2-2.4-2.6.9-3.5-.2-6.4-2.3-6.4-1 0-2.1.3-2.4.7zM.4 13.3c-.3.8-.4 3.9-.2 6.8l.3 5.4h7v-13l-3.3-.3c-2.1-.2-3.4.2-3.8 1.1zM5 21.8c0 1.3-1.2 2.2-2.2 1.6-1-.6-.1-2.4 1.3-2.4.5 0 .9.4.9.8z"/></svg><svg viewBox="0 0 24 24" id="linkedin" xmlns="http://www.w3.org/2000/svg"><g fill="currentColor"><path xmlns="http://www.w3.org/2000/svg" d="M23.994 24v-.001H24v-8.802c0-4.306-.927-7.623-5.961-7.623-2.42 0-4.044 1.328-4.707 2.587h-.07V7.976H8.489v16.023h4.97v-7.934c0-2.089.396-4.109 2.983-4.109 2.549 0 2.587 2.384 2.587 4.243V24zM.396 7.977h4.976V24H.396zM2.882 0C1.291 0 0 1.291 0 2.882s1.291 2.909 2.882 2.909 2.882-1.318 2.882-2.909A2.884 2.884 0 002.882 0z" data-original="#000000"/></g></svg><svg viewBox="0 0 479.058 479.058" id="mail" xmlns="http://www.w3.org/2000/svg"><path d="M434.146 59.882H44.912C20.146 59.882 0 80.028 0 104.794v269.47c0 24.766 20.146 44.912 44.912 44.912h389.234c24.766 0 44.912-20.146 44.912-44.912v-269.47c0-24.766-20.146-44.912-44.912-44.912zm0 29.941c2.034 0 3.969.422 5.738 1.159L239.529 264.631 39.173 90.982a14.902 14.902 0 015.738-1.159zm0 299.411H44.912c-8.26 0-14.971-6.71-14.971-14.971V122.615l199.778 173.141c2.822 2.441 6.316 3.655 9.81 3.655s6.988-1.213 9.81-3.655l199.778-173.141v251.649c-.001 8.26-6.711 14.97-14.971 14.97z" fill="#999" data-original="#000000"/></svg><svg viewBox="0 0 24 24" id="pintest" xmlns="http://www.w3.org/2000/svg"><path d="M12.326 0C5.747.001 2.25 4.216 2.25 8.812c0 2.131 1.191 4.79 3.098 5.633.544.245.472-.054.94-1.844a.425.425 0 00-.102-.417c-2.726-3.153-.532-9.635 5.751-9.635 9.093 0 7.394 12.582 1.582 12.582-1.498 0-2.614-1.176-2.261-2.631.428-1.733 1.266-3.596 1.266-4.845 0-3.148-4.69-2.681-4.69 1.49 0 1.289.456 2.159.456 2.159S6.781 17.4 6.501 18.539c-.474 1.928.064 5.049.111 5.318.029.148.195.195.288.073.149-.195 1.973-2.797 2.484-4.678.186-.685.949-3.465.949-3.465.503.908 1.953 1.668 3.498 1.668 4.596 0 7.918-4.04 7.918-9.053C21.733 3.596 17.62 0 12.326 0z" fill="currentColor" data-original="#000000"/></svg><svg viewBox="0 0 475.084 475.085" id="product-cart" xmlns="http://www.w3.org/2000/svg"><g><path d="M365.446 401.998c0 10.092 3.579 18.702 10.711 25.834 7.132 7.139 15.749 10.711 25.845 10.711 10.081 0 18.698-3.572 25.83-10.711 7.139-7.132 10.711-15.742 10.711-25.834s-3.568-18.702-10.711-25.841c-7.132-7.132-15.749-10.704-25.83-10.704-10.096 0-18.713 3.572-25.845 10.704-7.132 7.139-10.711 15.749-10.711 25.841zM469.658 78.51c-3.618-3.617-7.898-5.426-12.848-5.426H113.918c-.193-1.331-.621-3.756-1.287-7.277-.666-3.523-1.188-6.329-1.569-8.425-.383-2.087-1.093-4.611-2.142-7.561-1.047-2.952-2.284-5.286-3.711-6.995-1.425-1.718-3.328-3.189-5.708-4.43-2.378-1.233-5.092-1.853-8.136-1.853H18.276c-4.952 0-9.234 1.812-12.85 5.424C1.809 45.583 0 49.868 0 54.816s1.809 9.231 5.426 12.847c3.619 3.617 7.902 5.424 12.85 5.424h58.237l50.532 234.976c-.378.76-2.329 4.373-5.852 10.848-3.521 6.475-6.328 12.135-8.42 16.988-2.093 4.859-3.14 8.616-3.14 11.279 0 4.948 1.809 9.232 5.424 12.854 3.621 3.606 7.902 5.421 12.851 5.421h292.348c4.948 0 9.232-1.814 12.847-5.421 3.62-3.621 5.427-7.905 5.427-12.854 0-4.949-1.807-9.233-5.427-12.847-3.614-3.614-7.898-5.428-12.847-5.428h-262.66c4.57-9.138 6.854-15.222 6.854-18.268 0-1.909-.238-4.004-.715-6.283s-1.047-4.805-1.713-7.569c-.667-2.752-1.093-4.799-1.283-6.133l298.077-34.831c4.753-.575 8.658-2.614 11.703-6.14 3.046-3.518 4.565-7.562 4.565-12.133V91.363c-.002-4.948-1.806-9.231-5.426-12.853zM109.632 401.998c0 10.092 3.567 18.702 10.706 25.834 7.141 7.139 15.75 10.711 25.841 10.711 10.085 0 18.699-3.572 25.835-10.711 7.139-7.132 10.71-15.742 10.71-25.834s-3.568-18.702-10.71-25.841c-7.137-7.132-15.75-10.704-25.835-10.704-10.09 0-18.704 3.572-25.841 10.704-7.135 7.139-10.706 15.749-10.706 25.841z" fill="currentColor" data-original="#000000"/></g></svg><svg viewBox="0 0 510 510" id="remove" xmlns="http://www.w3.org/2000/svg"><g><path d="M118.832 467.243A44.892 44.892 0 00163.776 510h182.447a44.89 44.89 0 0044.944-42.757L417.447 165H92.552zM300 240h30v165h-30zm-60 0h30v165h-30zm-60 0h30v165h-30zM330 75V45c0-24.812-20.186-45-45-45h-60c-24.812 0-45 20.188-45 45v30H60v60h390V75zm-120 0V45c0-8.271 6.73-15 15-15h60c8.272 0 15 6.729 15 15v30z" fill="currentColor" data-original="#000000"/></g></svg><svg viewBox="0 0 330 330" id="right-arrow" xmlns="http://www.w3.org/2000/svg"><path d="M250.606 154.389l-150-149.996c-5.857-5.858-15.355-5.858-21.213.001-5.857 5.858-5.857 15.355.001 21.213l139.393 139.39L79.393 304.394c-5.857 5.858-5.857 15.355.001 21.213C82.322 328.536 86.161 330 90 330s7.678-1.464 10.607-4.394l149.999-150.004a14.996 14.996 0 000-21.213z"/></svg><svg viewBox="0 0 448 448" id="rss" xmlns="http://www.w3.org/2000/svg"><circle cx="64" cy="384" r="64" fill="currentColor" data-original="#000000"/><path d="M0 149.344v85.344c117.632 0 213.344 95.68 213.344 213.312h85.312c0-164.672-133.984-298.656-298.656-298.656z" fill="currentColor" data-original="#000000"/><path d="M0 0v85.344C200 85.344 362.688 248 362.688 448H448C448 200.96 247.04 0 0 0z" fill="currentColor" data-original="#000000"/></svg><svg fill="currentColor" viewBox="0 0 55.31 56.97" id="search" xmlns="http://www.w3.org/2000/svg"><path d="M55.146 51.887L41.588 37.786A22.926 22.926 0 0046.984 23c0-12.682-10.318-23-23-23s-23 10.318-23 23 10.318 23 23 23c4.761 0 9.298-1.436 13.177-4.162l13.661 14.208c.571.593 1.339.92 2.162.92.779 0 1.518-.297 2.079-.837a3.004 3.004 0 00.083-4.242zM23.984 6c9.374 0 17 7.626 17 17s-7.626 17-17 17-17-7.626-17-17 7.626-17 17-17z"/></svg><svg version="1.0" viewBox="0 0 30 26" id="support" xmlns="http://www.w3.org/2000/svg"><path d="M7.5 2.8C5.9 3.9 3.9 5.4 3.2 6.2c-3.4 4.1-3.6 13.4-.3 14.6.9.3 3 1.6 4.7 2.9 1.7 1.2 3.4 2 3.7 1.6.9-.8.9-9.8.1-10.6-.4-.4-1.9.2-3.4 1.3-3.8 2.7-4 2.6-4-1.8.1-8.1 9.1-12.8 17-8.7 4.5 2.3 7.1 8.2 5.1 11.4-.7 1.1-1.4 1-4-.8L19 13.9v11.9l3-1.4c1.7-.9 3-1.9 3-2.4 0-.4.9-1 1.9-1.3 1.3-.3 2.2-1.7 2.7-4.3C31.6 5.7 17.3-3.1 7.5 2.8z"/></svg><svg version="1.0" viewBox="0 0 32 25" id="truck" xmlns="http://www.w3.org/2000/svg"><path d="M11 2.5c0 2-.5 2.5-2.3 2.5C5 5 2.3 8.8 1.8 14.7c-.4 4-.2 5.3.8 5.3.8 0 1.4.7 1.4 1.5 0 1.9 3.6 3.8 6 3 1-.3 2.2-1.5 2.5-2.6.8-2.4 7.5-2.8 7.5-.4 0 1.9 3.6 3.8 6 3 1-.3 2.2-1.5 2.5-2.6.4-1 1.1-1.9 1.6-1.9s.9-4.5.9-10V0H11v2.5zM11 9c0 1.6-.7 2-3.7 2-3.5 0-3.6 0-1.8-2 1-1.1 2.6-2 3.7-2s1.8.7 1.8 2zm-.2 11.3c.4 2-2.5 3.4-4 1.9s-.1-4.4 1.9-4c1 .2 1.9 1.1 2.1 2.1zm16 0c.4 2-2.5 3.4-4 1.9s-.1-4.4 1.9-4c1 .2 1.9 1.1 2.1 2.1z"/></svg><svg viewBox="0 0 512 512" id="twitter" xmlns="http://www.w3.org/2000/svg"><path d="M512 97.248c-19.04 8.352-39.328 13.888-60.48 16.576 21.76-12.992 38.368-33.408 46.176-58.016-20.288 12.096-42.688 20.64-66.56 25.408C411.872 60.704 384.416 48 354.464 48c-58.112 0-104.896 47.168-104.896 104.992 0 8.32.704 16.32 2.432 23.936-87.264-4.256-164.48-46.08-216.352-109.792-9.056 15.712-14.368 33.696-14.368 53.056 0 36.352 18.72 68.576 46.624 87.232-16.864-.32-33.408-5.216-47.424-12.928v1.152c0 51.008 36.384 93.376 84.096 103.136-8.544 2.336-17.856 3.456-27.52 3.456-6.72 0-13.504-.384-19.872-1.792 13.6 41.568 52.192 72.128 98.08 73.12-35.712 27.936-81.056 44.768-130.144 44.768-8.608 0-16.864-.384-25.12-1.44C46.496 446.88 101.6 464 161.024 464c193.152 0 298.752-160 298.752-298.688 0-4.64-.16-9.12-.384-13.568 20.832-14.784 38.336-33.248 52.608-54.496z" fill="currentColor" data-original="#000000"/></svg><svg viewBox="0 0 682.667 682" id="youtube" xmlns="http://www.w3.org/2000/svg"><path d="M626.813 64.035c-7.375-27.418-28.993-49.031-56.407-56.414C520.324-6.082 319.992-6.082 319.992-6.082s-200.324 0-250.406 13.184c-26.887 7.375-49.031 29.52-56.406 56.933C0 114.113 0 217.97 0 217.97s0 104.379 13.18 153.933c7.382 27.414 28.992 49.028 56.41 56.41C120.195 442.02 320 442.02 320 442.02s200.324 0 250.406-13.184c27.418-7.379 49.032-28.992 56.414-56.406 13.176-50.082 13.176-153.934 13.176-153.934s.527-104.383-13.183-154.46zM256.21 313.915V122.022l166.586 95.946zm0 0" fill="currentColor" data-original="#000000"/></svg></svg>