<svg width="61" height="56" viewBox="0 0 61 56" fill="none" xmlns="http://www.w3.org/2000/svg">
<rect y="10" width="46" height="46" rx="3" fill="#4D68EA"/>
<rect x="15" width="46" height="46" rx="3" fill="url(#paint0_linear)" fill-opacity="0.5"/>
<path d="M41.1 25.006C40.8893 25.7959 40.589 26.5592 40.205 27.281C40.6225 27.0377 41.0853 26.8825 41.565 26.825C43.522 26.615 45.315 28.368 45.315 28.368C45.315 28.368 43.935 30.46 41.975 30.667C40.7535 30.6941 39.5651 30.2689 38.638 29.473C37.6283 30.5828 36.3981 31.4696 35.0261 32.077C33.6541 32.6843 32.1705 32.9986 30.67 33C30.4918 33 30.3209 32.9292 30.1949 32.8032C30.0688 32.6772 29.998 32.5062 29.998 32.328C29.998 32.1498 30.0688 31.9788 30.1949 31.8528C30.3209 31.7268 30.4918 31.656 30.67 31.656C32.7916 31.6563 34.8512 30.9403 36.515 29.624C35.9256 29.6813 35.331 29.598 34.78 29.381C32.964 28.621 32.244 26.219 32.244 26.219C32.244 26.219 34.459 25.052 36.272 25.815C37.1422 26.2357 37.8494 26.9317 38.284 27.795C38.934 26.9198 39.4273 25.9387 39.742 24.895C38.6815 25.2573 37.5266 25.2303 36.484 24.819C34.711 23.967 34.108 21.535 34.108 21.535C34.108 21.535 36.383 20.479 38.157 21.332C38.9978 21.7925 39.665 22.5152 40.057 23.39C40.1007 23.055 40.126 22.7178 40.133 22.38C38.8377 21.382 37.944 19.9518 37.615 18.35C37.268 15.582 39.71 13 39.71 13C39.71 13 42.712 14.901 43.056 17.664C43.1267 19.3803 42.5632 21.0626 41.473 22.39C41.4713 22.7209 41.4513 23.0514 41.413 23.38C41.7827 22.6149 42.3753 21.9797 43.113 21.558C44.863 20.653 47.167 21.643 47.167 21.643C47.167 21.643 46.635 24.092 44.885 24.993C43.6704 25.4775 42.317 25.4821 41.099 25.006H41.1Z" fill="white"/>
<defs>
<linearGradient id="paint0_linear" x1="38" y1="0" x2="38" y2="46" gradientUnits="userSpaceOnUse">
<stop stop-color="#2F51F5"/>
<stop offset="1" stop-color="#CFD2DE"/>
</linearGradient>
</defs>
</svg>
