<svg width="61" height="56" viewBox="0 0 61 56" fill="none" xmlns="http://www.w3.org/2000/svg">
<rect y="10" width="46" height="46" rx="3" fill="#4D68EA"/>
<rect x="15" width="46" height="46" rx="3" fill="url(#paint0_linear)" fill-opacity="0.5"/>
<path fill-rule="evenodd" clip-rule="evenodd" d="M35.0001 30C34.0001 30 31.0001 27 31.0001 26C31.0001 25.667 31.3331 25 32.0001 24L29.3771 23.344C29.2216 23.3052 29.0777 23.2296 28.9575 23.1235C28.8373 23.0175 28.7443 22.8841 28.6865 22.7346C28.6287 22.5851 28.6076 22.4238 28.6251 22.2645C28.6426 22.1052 28.6982 21.9524 28.7871 21.819L29.6091 20.586C29.7236 20.4144 29.8884 20.2824 30.0808 20.2081C30.2733 20.1338 30.484 20.1208 30.6841 20.171L34.0001 21C38.0001 15 44.0001 13 48.0001 13C48.0001 17 46.0001 23 40.0001 27L40.8301 30.316C40.8802 30.5162 40.8671 30.727 40.7926 30.9195C40.7181 31.1119 40.5859 31.2766 40.4141 31.391L39.1811 32.213C39.0477 32.3019 38.8949 32.3575 38.7356 32.375C38.5763 32.3925 38.4151 32.3714 38.2656 32.3136C38.1161 32.2558 37.9827 32.1628 37.8766 32.0426C37.7705 31.9225 37.6949 31.7785 37.6561 31.623L37.0001 29C36.0001 29.667 35.3331 30 35.0001 30ZM41.5001 21C41.8979 21 42.2795 20.842 42.5608 20.5607C42.8421 20.2794 43.0001 19.8978 43.0001 19.5C43.0001 19.1022 42.8421 18.7206 42.5608 18.4393C42.2795 18.158 41.8979 18 41.5001 18C41.1023 18 40.7208 18.158 40.4395 18.4393C40.1581 18.7206 40.0001 19.1022 40.0001 19.5C40.0001 19.8978 40.1581 20.2794 40.4395 20.5607C40.7208 20.842 41.1023 21 41.5001 21ZM30.0001 27L31.0001 28.5C30.3331 29.167 30.0001 30 30.0001 31C31.0001 31 31.8331 30.667 32.5001 30L34.0001 31C32.8601 32.14 31.2321 32.793 29.1171 32.958C28.9731 32.9693 28.8283 32.9492 28.6928 32.8992C28.5572 32.8491 28.4341 32.7703 28.332 32.6682C28.2298 32.566 28.151 32.4429 28.1009 32.3074C28.0509 32.1718 28.0308 32.027 28.0421 31.883C28.2071 29.768 28.8601 28.14 30.0001 27Z" fill="white"/>
<defs>
<linearGradient id="paint0_linear" x1="38" y1="0" x2="38" y2="46" gradientUnits="userSpaceOnUse">
<stop stop-color="#2F51F5"/>
<stop offset="1" stop-color="#CFD2DE"/>
</linearGradient>
</defs>
</svg>
